# xmcd CD database file
#
# Track frame offsets:
#	150
#	13105
#	26363
#	38045
#	49664
#	62442
#	72379
#	84017
#	94173
#	106064
#	118824
#	131605
#	141786
#	155222
#	168664
#	181955
#	194289
#	205454
#
# Disc length: 2895 seconds
#
# Revision: 1
# Processed by: cddbd v1.5.1PL0 Copyright (c) Steve Scherf et al.
# Submitted via: CDex 1.51
#
DISCID=f60b4d12
DTITLE=Robert Johnson - Presenting...
DYEAR=1900
DGENRE=Blues
TTITLE0=32
TTITLE1=I Believe I'll Dust My Broom
TTITLE2=I'm A Steady Rollin' Man
TTITLE3=If I Had Possession Over Judgement Day
TTITLE4=Kindhearted Woman Blues
TTITLE5=Little Queen Of Spades
TTITLE6=Me And The Devil Blues
TTITLE7=Milkcow's Calf Blues
TTITLE8=Phonograph Blues
TTITLE9=Preachin' Blues
TTITLE10=Ramblin' On My Mind
TTITLE11=Stop Breakin' Down Blues
TTITLE12=Sweet Home Chicago
TTITLE13=Terraplane Blues
TTITLE14=They're Red Hot
TTITLE15=Travellin' Riverside Blues
TTITLE16=Walkin' Blues
TTITLE17=When You Got A Good Friend
EXTD=
EXTT0=
EXTT1=
EXTT2=
EXTT3=
EXTT4=
EXTT5=
EXTT6=
EXTT7=
EXTT8=
EXTT9=
EXTT10=
EXTT11=
EXTT12=
EXTT13=
EXTT14=
EXTT15=
EXTT16=
EXTT17=
PLAYORDER=
